<?xml version="1.0" encoding="UTF-8" standalone="no"?><svg xmlns="http://www.w3.org/2000/svg" xmlns:xlink="http://www.w3.org/1999/xlink" fill="#000000" height="920.1" preserveAspectRatio="xMidYMid meet" version="1" viewBox="487.7 766.2 1477.0 920.1" width="1477" zoomAndPan="magnify"><g id="change1_1"><path d="M 1741.761719 1008.515625 L 1735.035156 882.554688 L 1899.484375 1008.515625 Z M 1735.347656 1041.675781 L 1904.96875 1041.675781 L 1533.75 1373.101562 Z M 717.117188 1041.675781 L 918.714844 1373.039062 L 547.558594 1041.675781 Z M 710.742188 1008.515625 L 552.980469 1008.515625 L 717.457031 882.554688 Z M 1018.699219 861.640625 L 891.820312 799.332031 L 1151.78125 799.332031 Z M 1433.761719 861.628906 L 1300.726562 799.332031 L 1560.640625 799.332031 Z M 1507.398438 1041.675781 L 1687.484375 1041.675781 L 1353.859375 1390.738281 Z M 1226.269531 1124.207031 L 1284.152344 1468.21875 L 1226.269531 1622.828125 L 1168.347656 1468.269531 Z M 945.066406 1041.675781 L 1098.671875 1390.789062 L 765.011719 1041.675781 Z M 945.035156 1008.515625 L 796.917969 1008.515625 L 985.53125 914.855469 Z M 1173.671875 1008.515625 L 980.894531 1008.515625 L 1025.648438 905.09375 Z M 1226.269531 1004.933594 L 1051.492188 882.828125 L 1226.269531 801.03125 L 1401.011719 882.828125 Z M 1426.84375 905.09375 L 1471.601562 1008.515625 L 1278.824219 1008.515625 Z M 1144.320312 1412.878906 L 981.066406 1041.675781 L 1206.800781 1041.675781 Z M 1245.722656 1041.675781 L 1471.429688 1041.675781 L 1308.175781 1412.910156 Z M 1507.496094 1008.515625 L 1466.933594 914.855469 L 1655.578125 1008.515625 Z M 1700.707031 856.261719 L 1708.253906 997.726562 L 1471.300781 880.070312 L 1630.046875 802.105469 Z M 822.417969 802.105469 L 981.167969 880.070312 L 744.25 997.726562 L 751.75 856.261719 Z M 1003.148438 1448.410156 L 819.382812 1146.339844 L 1137.1875 1478.890625 L 1187.410156 1612.910156 Z M 1265.09375 1612.941406 L 1315.238281 1478.941406 L 1633.144531 1146.339844 L 1449.3125 1448.46875 Z M 1963.273438 1031.851562 C 1963.300781 1031.753906 1963.371094 1031.695312 1963.445312 1031.585938 C 1964.289062 1029.597656 1964.769531 1027.402344 1964.769531 1025.101562 C 1964.769531 1024.980469 1964.695312 1024.882812 1964.695312 1024.761719 C 1964.695312 1024.667969 1964.734375 1024.570312 1964.734375 1024.484375 C 1964.734375 1023.835938 1964.394531 1023.304688 1964.289062 1022.714844 C 1964.023438 1021.074219 1963.746094 1019.484375 1963.058594 1018.039062 C 1962.71875 1017.289062 1962.179688 1016.710938 1961.730469 1016.046875 C 1960.875 1014.796875 1960.03125 1013.648438 1958.898438 1012.671875 C 1958.632812 1012.445312 1958.527344 1012.105469 1958.25 1011.890625 L 1641.882812 769.546875 C 1640.65625 768.621094 1639.292969 767.96875 1637.894531 767.402344 C 1637.652344 767.320312 1637.484375 767.148438 1637.242188 767.066406 C 1635.542969 766.488281 1633.722656 766.183594 1631.964844 766.183594 L 820.542969 766.183594 C 818.734375 766.183594 816.929688 766.488281 815.226562 767.066406 C 815.050781 767.136719 814.917969 767.269531 814.746094 767.34375 C 813.28125 767.898438 811.851562 768.585938 810.621094 769.546875 L 494.226562 1011.890625 C 493.953125 1012.105469 493.832031 1012.445312 493.578125 1012.6875 C 492.453125 1013.648438 491.617188 1014.796875 490.785156 1016.023438 C 490.324219 1016.699219 489.792969 1017.289062 489.4375 1018.039062 C 488.773438 1019.460938 488.484375 1021.015625 488.226562 1022.605469 C 488.140625 1023.246094 487.765625 1023.800781 487.734375 1024.484375 C 487.734375 1024.59375 487.800781 1024.667969 487.800781 1024.777344 C 487.800781 1024.882812 487.734375 1024.980469 487.734375 1025.101562 C 487.734375 1027.402344 488.210938 1029.597656 489.0625 1031.585938 C 489.113281 1031.707031 489.234375 1031.816406 489.300781 1031.949219 C 490.207031 1033.925781 491.449219 1035.671875 493.015625 1037.128906 C 493.121094 1037.226562 493.152344 1037.40625 493.289062 1037.515625 L 979.125 1471.25 C 979.15625 1471.289062 979.191406 1471.300781 979.222656 1471.320312 L 1215.359375 1682.160156 C 1215.601562 1682.371094 1215.867188 1682.421875 1216.109375 1682.601562 C 1217.15625 1683.441406 1218.289062 1684.101562 1219.484375 1684.648438 C 1219.652344 1684.71875 1219.761719 1684.851562 1219.929688 1684.921875 C 1220.132812 1685.011719 1220.265625 1685.179688 1220.433594 1685.25 C 1220.472656 1685.261719 1220.472656 1685.25 1220.472656 1685.261719 C 1220.640625 1685.300781 1220.785156 1685.300781 1220.90625 1685.351562 C 1222.617188 1685.949219 1224.425781 1686.320312 1226.269531 1686.320312 C 1228.113281 1686.320312 1229.886719 1685.949219 1231.585938 1685.351562 C 1231.765625 1685.300781 1231.886719 1685.300781 1232.03125 1685.261719 C 1232.054688 1685.25 1232.054688 1685.261719 1232.054688 1685.25 C 1232.273438 1685.179688 1232.40625 1685.011719 1232.574219 1684.921875 C 1232.742188 1684.851562 1232.875 1684.71875 1233.054688 1684.628906 C 1234.238281 1684.089844 1235.371094 1683.441406 1236.394531 1682.601562 C 1236.636719 1682.429688 1236.9375 1682.371094 1237.164062 1682.160156 L 1959.210938 1037.515625 C 1959.34375 1037.40625 1959.382812 1037.226562 1959.515625 1037.128906 C 1961.082031 1035.636719 1962.347656 1033.863281 1963.273438 1031.851562" fill="#5e17eb"/></g></svg>