<?xml version="1.0" encoding="UTF-8" standalone="no"?><svg xmlns="http://www.w3.org/2000/svg" xmlns:xlink="http://www.w3.org/1999/xlink" fill="#d6c9ef" height="129.5" preserveAspectRatio="xMidYMid meet" version="1" viewBox="-0.1 -0.0 155.1 129.5" width="155.1" zoomAndPan="magnify"><g><path d="m402.76 517.48 10.831 25.88 13.839-30.695" fill="none" stroke="#d6c9ef" stroke-dashoffset="3.003" stroke-linecap="round" stroke-linejoin="round" stroke-width="2" transform="translate(-331.53 -469.52)"/><path d="m400.95 518.09-19.05 26.493 4.0078-24.687" fill="none" stroke="#d6c9ef" stroke-dashoffset="3.003" stroke-linecap="round" stroke-linejoin="round" stroke-width="2" transform="translate(-331.53 -469.52)"/><path d="m428.03 513.87 24.015 22.269-4.7925-25.074" fill="none" stroke="#d6c9ef" stroke-dashoffset="3.003" stroke-linecap="round" stroke-linejoin="round" stroke-width="2" transform="translate(-331.53 -469.52)"/><g id="change1_1"><path d="m363.8 545.72c-1.2896-2.6852 59.414 52.171 59.414 52.171l-25.17-52.954z" fill="#8c52ff" stroke="#d6c9ef" stroke-dashoffset="3.003" stroke-linecap="round" stroke-linejoin="round" stroke-width="2" transform="translate(-331.53 -469.52)"/></g><g id="change1_2"><path d="m423.54 597.52 10.327-56.459-37.803 4.1203z" fill="#8c52ff" stroke="#d6c9ef" stroke-dashoffset="3.003" stroke-linecap="round" stroke-linejoin="round" stroke-width="2" transform="translate(-331.53 -469.52)"/></g><g id="change1_3"><path d="m363.46 545.28 22.719-26.981 18.01-3.3478-7.8426 29.859z" fill="#8c52ff" stroke="#d6c9ef" stroke-dashoffset="3.003" stroke-linecap="round" stroke-linejoin="round" stroke-width="2" transform="translate(-331.53 -469.52)"/></g><g id="change1_4"><path d="m427.19 511.24 19.546-0.61275 21.2 20.743-34.443 9.4111z" fill="#8c52ff" stroke="#d6c9ef" stroke-dashoffset="3.003" stroke-linecap="round" stroke-linejoin="round" stroke-width="2" transform="translate(-331.53 -469.52)"/></g><g id="change1_5"><path d="m403.63 515.1 23.427-3.8446 6.8035 29.814-37.472 4.0784z" fill="#8c52ff" stroke="#d6c9ef" stroke-dashoffset="3.003" stroke-linecap="round" stroke-linejoin="round" stroke-width="2" transform="translate(-331.53 -469.52)"/></g><g id="change1_6"><path d="m423.54 597.52 44.729-66.201-34.401 9.742z" fill="#8c52ff" stroke="#d6c9ef" stroke-dashoffset="3.003" stroke-linecap="round" stroke-linejoin="round" stroke-width="2" transform="translate(-331.53 -469.52)"/></g><g id="change1_7"><path d="m407.9 470.54 4.3522 31.722" fill="#8c52ff" stroke="#d6c9ef" stroke-dashoffset="3.003" stroke-linecap="round" stroke-linejoin="round" stroke-width="2" transform="translate(-331.53 -469.52)"/></g><g id="change1_8"><path d="m441.68 499.66 10.861-21.822" fill="#8c52ff" stroke="#d6c9ef" stroke-dashoffset="3.003" stroke-linecap="round" stroke-linejoin="round" stroke-width="2" transform="translate(-331.53 -469.52)"/></g><g id="change1_9"><path d="m468.11 521.84 17.286-13.745" fill="#8c52ff" stroke="#d6c9ef" stroke-dashoffset="3.003" stroke-linecap="round" stroke-linejoin="round" stroke-width="2" transform="translate(-331.53 -469.52)"/></g><g id="change1_10"><path d="m458.81 559.73 20.589 8.6099" fill="#8c52ff" transform="translate(-331.53 -469.52)"/></g><g id="change1_11"><path d="m332.56 524.5 22.559 12.571" fill="#8c52ff" stroke="#d6c9ef" stroke-dashoffset="3.003" stroke-linecap="round" stroke-linejoin="round" stroke-width="2" transform="translate(-331.53 -469.52)"/></g><g id="change1_12"><path d="m367.57 490.91 11.362 19.061" fill="#8c52ff" stroke="#d6c9ef" stroke-dashoffset="3.003" stroke-linecap="round" stroke-linejoin="round" stroke-width="2" transform="translate(-331.53 -469.52)"/></g><path d="m403.88 514.95 9.706 28.412 13.839-30.695" fill="none" stroke="#d6c9ef" stroke-dashoffset="3.003" stroke-linecap="round" stroke-linejoin="round" transform="translate(-331.53 -469.52)"/><path d="m402.92 515.84-24.597 28.743 7.5864-24.687" fill="none" stroke="#d6c9ef" stroke-dashoffset="3.003" stroke-linecap="round" stroke-linejoin="round" transform="translate(-331.53 -469.52)"/><path d="m427.47 511.06 24.578 25.082-4.7925-25.074" fill="none" stroke="#d6c9ef" stroke-dashoffset="3.003" stroke-linecap="round" stroke-linejoin="round" transform="translate(-331.53 -469.52)"/><path d="m451.83 536.04-27.251 60.057" fill="none" stroke="#d6c9ef" stroke-dashoffset="3.003" stroke-linecap="round" stroke-linejoin="round" transform="translate(-331.53 -469.52)"/><path d="m413.89 543.04 9.8922 53.062-1.9199-1.3097" fill="none" stroke="#d6c9ef" stroke-dashoffset="3.003" stroke-linecap="round" stroke-linejoin="round" transform="translate(-331.53 -469.52)"/><path d="m378.85 545.19 43.457 51.005" fill="none" stroke="#d6c9ef" stroke-dashoffset="3.003" stroke-linecap="round" stroke-linejoin="round" transform="translate(-331.53 -469.52)"/><g id="change2_1"><path d="m372.46 571.15-13.214 14.343" fill="inherit" stroke="#d6c9ef" stroke-linecap="round" stroke-width="2" transform="translate(-331.53 -469.52)"/></g><g id="change2_2"><path d="m456.39 565.87 11.133 9.9432" fill="inherit" stroke="#d6c9ef" stroke-dashoffset="3.003" stroke-linecap="round" stroke-linejoin="round" stroke-width="2" transform="translate(-331.53 -469.52)"/></g></g></svg>